<svg xmlns="http://www.w3.org/2000/svg"
shape-rendering="geometricPrecision"
width="4000" height="4000" viewBox="0 0 611 611">
  <metadata>null</metadata>

<path d="
M 27.932 525.962
C 30.462 523.143 32.711 520.162 35.072 517.208
C 35.749 517.194 36.373 518.147 36.872 518.595
C 38.235 519.82 39.579 521.05 41.121 522.051
C 46.022 525.231 52.005 526.977 57.859 526.309
C 60.461 526.012 63.74 524.846 64.982 522.346
C 68.494 515.278 59.771 512.251 54.71 510.801
C 45.263 508.094 32.82 506.061 30.808 494.392
C 30.441 492.259 30.432 490.072 30.669 487.927
C 31.662 478.952 38.934 472.969 47.422 471.353
C 57.695 469.397 70.077 472.474 78.023 479.408
C 77.23 481.356 75.492 483.066 74.382 484.864
C 73.434 486.4 72.705 488.567 71.492 489.883
C 65.143 486.3 58.72 482.159 50.99 482.891
C 46.034 483.36 41.02 488.374 45.09 493.143
C 48.079 496.646 54.09 497.136 58.254 498.299
C 67.267 500.818 77.003 504.587 78.995 514.855
C 79.353 516.703 79.313 518.643 79.121 520.508
C 78.923 522.428 78.361 524.346 77.606 526.12
C 71.351 540.81 50.992 540.659 38.667 534.829
C 35.813 533.479 33.24 531.701 30.798 529.713
C 29.64 528.77 28.217 527.81 27.528 526.465
C 27.663 526.297 27.797 526.13 27.932 525.962 Z"
opacity="1" fill="rgb(19,15,90)" fill-rule="evenodd" />
<path d="
M 89.306 471.932
C 93.685 472.143 98.135 472.047 102.515 471.87
C 102.543 480.602 102.88 489.398 102.589 498.13
C 103.33 498.545 104.469 498.315 105.322 498.299
C 107.216 498.262 109.112 498.271 111.007 498.276
C 117.96 498.295 124.967 498.053 131.91 498.383
C 132.238 494.856 131.922 491.165 131.962 487.617
C 132.021 482.47 132.414 477.195 131.989 472.065
C 133.398 471.665 135.255 471.963 136.731 471.999
C 139.501 472.068 142.265 471.973 145.03 471.987
C 145.551 477.422 145.19 483.037 145.2 488.502
C 145.217 498.835 145.197 509.169 145.202 519.502
C 145.204 523.502 145.224 527.502 145.235 531.503
C 145.241 533.273 144.91 535.499 145.274 537.21
C 140.989 537.09 136.526 536.747 132.253 537.178
C 131.827 536.587 132.05 535.447 132.073 534.727
C 132.122 533.152 132.083 531.574 132.085 530
C 132.094 523.648 131.824 517.252 131.994 510.91
C 125.829 510.114 119.216 510.69 113.002 510.686
C 109.749 510.683 105.687 510.081 102.527 510.827
C 102.315 515.133 102.467 519.479 102.448 523.791
C 102.427 528.214 102.207 532.792 102.801 537.188
C 98.294 536.743 93.806 537.289 89.314 537.203
C 89.743 515.454 88.811 493.677 89.306 471.932 Z"
opacity="1" fill="rgb(20,17,93)" fill-rule="evenodd" />
<path d="
M 159.38 471.929
C 171.549 472.347 183.826 471.848 196.009 471.899
C 199.008 471.912 202.008 471.936 205.007 471.939
C 205.923 471.94 207.856 471.589 208.476 472.285
C 208.225 476.264 208.663 480.299 208.36 484.284
C 196.2 483.897 183.99 484.707 171.841 484.324
C 172.185 488.925 172.145 494.065 171.719 498.66
C 182.473 497.888 193.355 499.206 204.126 498.66
C 204.107 502.551 203.914 506.498 204.074 510.383
C 202.973 510.749 201.657 510.531 200.51 510.522
C 198.28 510.504 196.047 510.545 193.816 510.562
C 186.528 510.618 179.098 510.981 171.825 510.663
C 172.159 515.342 172.195 520.537 171.644 525.198
C 176.209 524.755 180.922 525.085 185.506 525.088
C 193.238 525.094 200.975 525.026 208.705 525.19
C 209.183 526.184 208.829 527.884 208.82 528.99
C 208.796 531.708 208.512 534.644 208.884 537.337
C 192.406 536.429 175.768 537.523 159.271 537.234
C 158.804 526.696 159.197 516.052 159.203 505.502
C 159.208 494.426 158.815 483.285 159.117 472.219
C 159.204 472.122 159.292 472.025 159.38 471.929 Z"
opacity="1" fill="rgb(20,17,93)" fill-rule="evenodd" />
<path d="
M 165.959 95.102
C 167.979 83.344 176.171 74.443 188.093 72.462
C 193.207 71.613 198.525 71.886 203.686 71.918
C 210.293 71.959 216.902 71.932 223.509 71.929
C 245.827 71.919 268.144 71.935 290.462 71.933
C 300.143 71.932 309.826 72.005 319.509 72
C 322.342 71.999 325.174 72.015 328.006 72.026
C 329.261 72.032 330.878 71.797 332.063 72.274
C 334.064 73.08 335.985 75.791 337.503 77.284
C 341.597 81.31 345.672 85.352 349.703 89.443
C 354.708 94.521 359.726 99.586 364.759 104.636
C 366.959 106.844 370.363 109.284 371.588 112.222
C 372.532 114.486 371.898 118.076 371.907 120.509
C 371.929 126.535 371.85 132.572 371.969 138.597
C 372.272 154.039 371.921 169.553 371.95 185.012
C 371.961 190.511 371.929 196.01 371.893 201.509
C 371.876 204.14 372.289 207.064 371.839 209.648
C 370.247 211.461 367.254 212.35 365.261 213.7
C 364.985 213.887 363.556 214.969 363.354 214.78
C 364.233 207.916 363.332 200.427 363.335 193.501
C 363.34 178.502 363.308 163.502 363.302 148.503
C 363.3 141.67 363.304 134.837 363.298 128.004
C 363.296 125.311 364.074 121.244 363.215 118.71
C 354.646 118.786 346.069 118.692 337.498 118.719
C 334.295 118.729 329.727 119.706 327.257 117.252
C 325.094 115.104 326.137 110.324 326.186 107.503
C 326.339 98.548 326.039 89.561 326.271 80.619
C 302.472 80.728 278.673 80.318 254.87 80.45
C 245.419 80.502 235.957 80.544 226.501 80.593
C 222.373 80.614 218.12 81.019 214.013 80.784
C 214.703 82.047 215.881 82.976 216.716 84.162
C 218.376 86.52 219.451 89.172 220.24 91.931
C 221.825 97.47 221.324 103.431 221.316 109.126
C 221.303 117.75 221.301 126.374 221.31 134.997
C 221.343 165.002 221.464 195.007 221.449 225.012
C 221.444 236.398 221.435 247.785 221.469 259.171
C 221.478 262.207 221.555 265.242 221.571 268.279
C 221.579 269.629 221.903 271.215 221.249 272.448
C 219.338 274.134 217.539 276.027 215.818 277.906
C 215.398 278.364 213.01 280.852 213.019 280.765
C 213.32 277.55 212.967 274.228 212.947 271
C 212.909 264.667 212.927 258.334 212.93 252.001
C 212.942 231.501 212.887 211.001 212.903 190.502
C 212.916 175.002 212.869 159.502 212.858 144.002
C 212.854 139.076 212.853 134.15 212.879 129.224
C 212.892 126.72 213.181 124.008 212.82 121.533
C 201.505 120.629 189.856 121.45 178.506 121.435
C 175.839 121.432 173.172 121.445 170.505 121.443
C 169.079 121.443 167.673 121.57 166.631 120.424
C 165.02 118.654 165.613 115.694 165.614 113.502
C 165.617 107.432 165.195 101.133 165.959 95.102 Z
M 200.464 112.979
C 204.542 113.179 208.663 112.896 212.739 113.144
C 212.712 102.55 213.808 90.88 204.145 83.86
C 202.594 82.734 200.946 81.799 199.086 81.289
C 197.024 80.724 194.776 80.438 192.639 80.566
C 189.714 80.742 187.098 81.727 184.398 82.781
C 172.16 87.939 174.229 102.404 174.25 113.113
C 179.811 113.302 185.433 113.127 191.001 113.106
C 194.052 113.095 197.458 113.506 200.464 112.979 Z
M 334.916 87.053
C 334.875 94.668 334.678 102.35 334.964 109.962
C 342.585 110.598 350.421 109.114 358.051 109.819
C 357.955 109.38 357.101 108.87 356.777 108.584
C 355.352 107.328 354.07 105.908 352.742 104.553
C 348.532 100.255 344.287 95.986 339.958 91.809
C 338.672 90.567 336.584 87.474 334.916 87.053 Z"
opacity="1" fill="rgb(20,17,93)" fill-rule="evenodd" />
<path d="
M 184.398 82.781
C 185.449 83.785 187.007 82.989 188.235 84.129
C 190.134 85.892 191.454 88.301 192.78 90.495
C 194.69 93.653 196.692 96.789 198.079 100.227
C 199.149 102.882 199.427 106.007 199.755 108.829
C 199.903 110.107 199.77 111.866 200.464 112.979
C 197.458 113.506 194.052 113.095 191.001 113.106
C 185.433 113.127 179.811 113.302 174.25 113.113
C 174.229 102.404 172.16 87.939 184.398 82.781 Z"
opacity="1" fill="rgb(97,146,209)" fill-rule="evenodd" />
<path d="
M 184.398 82.781
C 187.098 81.727 189.714 80.742 192.639 80.566
C 194.776 80.438 197.024 80.724 199.086 81.289
C 200.946 81.799 202.594 82.734 204.145 83.86
C 213.808 90.88 212.712 102.55 212.739 113.144
C 208.663 112.896 204.542 113.179 200.464 112.979
C 199.77 111.866 199.903 110.107 199.755 108.829
C 199.427 106.007 199.149 102.882 198.079 100.227
C 196.692 96.789 194.69 93.653 192.78 90.495
C 191.454 88.301 190.134 85.892 188.235 84.129
C 187.007 82.989 185.449 83.785 184.398 82.781 Z"
opacity="1" fill="rgb(85,133,200)" fill-rule="evenodd" />
<path d="
M 286.12 245.815
C 291.568 250.307 296.418 254.26 303.573 255.732
C 321.339 259.387 337.805 246.716 341.327 229.494
C 346.597 227.395 352.03 225.621 357.313 223.509
C 372.538 217.422 389.284 206.242 390.919 188.489
C 391.198 185.462 390.973 182.268 390.3 179.294
C 389.082 173.908 385.844 170.039 383.103 165.435
C 383.457 165.34 383.991 166.033 384.214 166.279
C 385.072 167.22 385.909 168.185 386.791 169.104
C 390.875 173.361 394.189 178.118 396.618 183.502
C 404.945 201.959 402.243 223.711 386.722 237.511
C 372.078 250.531 351.756 255.87 333.073 260.063
C 305.696 266.206 277.83 271.019 251.77 281.771
C 235.331 288.553 217.791 299.065 208.69 314.935
C 205.223 320.979 203.076 327.996 203.329 335.004
C 203.397 336.9 203.594 338.788 204.059 340.631
C 204.386 341.928 205.132 343.202 204.869 344.564
C 204.276 344.207 203.942 342.957 203.719 342.32
C 202.988 340.226 202.137 338.166 201.484 336.041
C 198.308 325.717 199.805 314.511 203.784 304.622
C 215.101 276.502 242.067 261.187 269.049 250.92
C 273.901 249.074 279.023 247.194 284.053 245.912
C 284.753 245.734 285.429 246.034 286.12 245.815 Z"
opacity="1" fill="rgb(208,154,42)" fill-rule="evenodd" />
<path d="
M 385.024 263.864
C 382.96 263.312 380.65 265.815 378.865 266.727
C 373.423 269.506 367.941 271.79 362.136 273.704
C 342.312 280.239 321.251 282.866 300.83 286.942
C 294.632 288.178 288.432 289.323 282.239 290.606
C 280.943 290.875 276.956 290.961 276.486 292.471
C 275.447 291.549 271.298 293.316 269.965 293.727
C 269.28 293.937 267.914 294.095 268.041 294.931
C 267.13 294.365 266.311 294.814 265.362 295.146
C 263.176 295.91 261.011 296.784 258.794 297.456
C 251.08 299.793 243.499 303.009 236.477 306.97
C 234.586 308.036 230.393 309.641 229.497 311.754
C 227.969 311.641 227.154 312.681 226.086 313.63
C 224.267 315.248 222.542 316.91 220.817 318.628
C 212.724 326.687 208.077 338.09 212.117 349.291
C 212.943 351.581 214.196 353.914 215.658 355.861
C 216.336 356.762 217.717 357.825 217.968 358.942
C 214.222 356.303 211.133 351.748 209.414 347.562
C 208.114 344.394 207.03 341.107 206.711 337.681
C 205.983 329.866 208.713 322.285 213.018 315.857
C 220.785 304.262 232.564 296.051 244.947 289.95
C 269.012 278.095 295.971 273.225 322.054 267.974
C 335.203 265.327 348.491 262.709 361.157 258.206
C 373.141 253.946 385.398 248.126 393.686 238.108
C 397.316 233.721 400.023 228.908 402.141 223.634
C 403.501 220.25 404.372 216.484 404.837 212.87
C 405.533 207.465 405.591 201.983 404.674 196.603
C 404.085 193.148 402.816 189.867 402.179 186.435
C 402.211 186.293 402.147 185.942 402.276 186.01
C 403.244 186.525 403.82 189.354 404.326 190.31
C 405.824 193.143 406.717 196.292 407.755 199.303
C 410.885 208.376 411.115 218.527 409.58 227.917
C 407.98 237.706 403.073 246.921 396.129 253.953
C 393.476 256.64 390.457 259.075 387.345 261.208
C 386.838 261.556 384.065 263.163 385.024 263.864 Z"
opacity="1" fill="rgb(21,18,99)" fill-rule="evenodd" />
<path d="
M 219.342 471.942
C 228.402 472.271 237.511 471.791 246.578 471.94
C 252.903 472.043 259.616 472.609 264.823 476.635
C 274.57 484.172 275.752 499.894 267.445 508.958
C 265.181 511.43 262.186 513.635 258.811 514.201
C 264.559 521.571 268.957 529.996 275.085 537.074
C 274.29 537.664 272 537.212 271.006 537.197
C 267.269 537.141 262.901 537.805 259.248 537.113
C 256.908 534.402 255.035 531.112 252.924 528.208
C 250.113 524.339 246.85 520.378 244.606 516.152
C 240.544 516.158 236.475 516.453 232.409 516.317
C 232.558 523.232 232.175 530.166 232.391 537.087
C 231.281 537.478 229.491 537.067 228.316 537.028
C 225.405 536.932 222.126 536.792 219.25 537.17
C 218.853 535.773 219.167 533.962 219.168 532.502
C 219.171 529.169 219.2 525.835 219.209 522.502
C 219.241 511.836 219.227 501.169 219.209 490.503
C 219.202 486.169 219.191 481.835 219.198 477.501
C 219.2 475.795 218.77 473.555 219.342 471.942 Z
M 232.43 484.394
C 232.323 484.524 232.216 484.655 232.108 484.785
C 232.247 491.342 232.639 498.178 232.126 504.716
C 236.862 504.307 241.832 504.759 246.593 504.758
C 249.667 504.758 252.62 504.757 255.328 503.114
C 261.391 499.433 260.827 488.836 254.687 485.603
C 252.052 484.215 248.942 484.402 246.054 484.367
C 241.535 484.312 236.941 484.111 232.43 484.394 Z"
opacity="1" fill="rgb(21,18,94)" fill-rule="evenodd" />
<path d="
M 280.857 321.734
C 280.119 323.132 280.042 324.786 279.667 326.308
C 278.968 329.142 278.187 331.939 277.678 334.818
C 275.101 349.395 275.936 364.71 281.517 378.576
C 279.975 378.074 278.114 378.225 276.504 378.212
C 273.671 378.189 270.84 378.141 268.007 378.121
C 258.077 378.051 248.105 378.359 238.192 378.033
C 237.292 377.454 236.78 375.784 236.3 374.829
C 234.807 371.853 233.477 368.773 232.175 365.711
C 226.3 351.891 223.314 336.672 222.179 321.739
C 233.56 322.236 245.111 321.731 256.511 321.714
C 261.843 321.706 267.176 321.614 272.508 321.629
C 275.246 321.636 278.144 321.941 280.857 321.734 Z"
opacity="1" fill="rgb(176,16,24)" fill-rule="evenodd" />
<path d="
M 268.041 294.931
C 270.434 298.329 272.057 302.613 275.145 305.471
C 277.231 307.402 281.547 308.454 282.036 311.86
C 264.553 311.774 246.97 312.261 229.497 311.754
C 230.393 309.641 234.586 308.036 236.477 306.97
C 243.499 303.009 251.08 299.793 258.794 297.456
C 261.011 296.784 263.176 295.91 265.362 295.146
C 266.311 294.814 267.13 294.365 268.041 294.931 Z"
opacity="1" fill="rgb(1,1,1)" fill-rule="evenodd" />
<path d="
M 237.948 121.801
C 244.606 121.379 251.336 121.63 258.008 121.643
C 269.508 121.665 281.007 121.704 292.507 121.698
C 297.076 121.696 301.646 121.664 306.216 121.656
C 307.773 121.653 310.124 121.229 311.322 122.386
C 312.296 123.895 312.268 127.829 311.443 129.414
C 310.275 130.681 308.05 130.258 306.503 130.24
C 302.003 130.188 297.5 130.225 293 130.231
C 281.167 130.245 269.334 130.224 257.501 130.25
C 251.122 130.265 244.494 130.785 238.151 130.099
C 237.716 129.46 237.886 128.328 237.884 127.576
C 237.88 125.646 237.907 123.727 237.948 121.801 Z"
opacity="1" fill="rgb(19,18,90)" fill-rule="evenodd" />
<path d="
M 237.954 210.099
C 238.066 209.361 237.922 209.749 238.554 209.013
C 244.526 208.67 250.528 208.878 256.507 208.901
C 258.446 208.909 261.912 208.29 263.586 209.323
C 264.719 211.199 265.002 215.809 263.409 217.507
C 261.966 218.284 259.113 217.691 257.497 217.699
C 252.997 217.723 248.497 217.726 243.997 217.723
C 242.316 217.722 239.49 218.229 237.989 217.465
C 238.022 215.021 237.753 212.549 237.954 210.099 Z"
opacity="1" fill="rgb(20,18,92)" fill-rule="evenodd" />
<path d="
M 238.382 143.4
C 255.161 142.453 272.199 143.259 289.008 143.255
C 308.329 143.25 327.786 142.564 347.093 143.282
C 347.448 146.124 347.131 149.035 347.34 151.891
C 344.949 151.702 342.455 152.041 340.054 152.047
C 334.703 152.059 329.353 152.074 324.002 152.076
C 305.836 152.08 287.67 152.19 269.504 152.159
C 262.503 152.147 255.502 152.089 248.502 152.071
C 245.341 152.062 241.197 152.685 238.161 151.699
C 238.037 149.046 237.922 146.354 238.098 143.704
C 238.193 143.603 238.287 143.501 238.382 143.4 Z"
opacity="1" fill="rgb(21,20,95)" fill-rule="evenodd" />
<path d="
M 238.227 165.263
C 274.536 165.002 310.869 165.45 347.18 165.234
C 347.959 167.837 347.13 171.163 347.348 173.872
C 344.459 173.614 341.411 173.895 338.506 173.911
C 332.673 173.943 326.841 173.946 321.008 173.948
C 303.84 173.953 286.672 173.832 269.504 173.849
C 262.504 173.856 255.505 173.851 248.505 173.869
C 245.385 173.876 241.327 174.562 238.391 173.391
C 237.485 171.215 237.896 167.554 238.227 165.263 Z"
opacity="1" fill="rgb(20,19,92)" fill-rule="evenodd" />
<path d="
M 238.146 187.181
C 248.224 186.622 258.413 186.929 268.507 186.931
C 271.34 186.931 274.173 186.934 277.006 186.937
C 278.204 186.938 279.626 186.698 280.733 187.209
C 282.814 189.117 283.753 194.017 280.887 195.81
C 276.048 196.366 270.875 195.797 266.001 195.79
C 256.73 195.776 247.442 195.907 238.178 195.636
C 237.901 192.858 237.963 189.961 238.146 187.181 Z"
opacity="1" fill="rgb(17,15,90)" fill-rule="evenodd" />
<path d="
M 286.477 388.954
C 287.951 390.268 288.99 393.172 290.098 394.889
C 292.677 398.884 295.52 402.5 298.931 405.817
C 300.477 407.32 302.284 409.163 304.27 410.078
C 307.895 411.748 311.532 409.454 314.063 407.101
C 316.973 404.394 319.661 401.098 321.771 397.727
C 323.483 394.992 324.879 391.971 326.892 389.449
C 329.278 392.211 330.958 395.781 332.779 398.925
C 334.361 401.659 336.178 404.429 337.31 407.389
C 338.333 407.411 339.919 406.351 340.849 405.872
C 340.517 404.506 338.502 402.473 337.733 401.171
C 335.25 396.968 332.6 392.635 330.494 388.235
C 338.648 388.011 346.844 388.17 355.006 388.196
C 359.579 388.211 364.518 387.699 369.04 388.404
C 366.671 393.333 362.682 397.971 359.199 402.156
C 349.192 414.18 337.372 424.694 324.522 433.596
C 320.28 436.534 315.969 439.305 311.519 441.923
C 310.33 442.623 307.952 444.63 306.537 444.495
C 304.9 444.34 302.818 442.475 301.425 441.663
C 297.091 439.135 292.98 436.295 288.871 433.425
C 276.639 424.881 264.697 414.901 255.115 403.401
C 251.135 398.625 247.609 393.503 244.079 388.394
C 256.881 387.351 270.003 388.177 282.838 388.064
C 282.343 389.593 281.167 390.936 280.364 392.337
C 278.711 395.224 276.989 398.078 275.249 400.915
C 274.48 402.17 272.461 404.211 272.443 405.649
C 273.426 406.126 274.253 407.135 275.342 407.358
C 277.826 403.52 279.908 399.401 282.33 395.513
C 283.607 393.464 285.693 391.218 286.477 388.954 Z"
opacity="1" fill="rgb(13,86,19)" fill-rule="evenodd" />
<path d="
M 276.486 292.471
C 276.956 290.961 280.943 290.875 282.239 290.606
C 288.432 289.323 294.632 288.178 300.83 286.942
C 321.251 282.866 342.312 280.239 362.136 273.704
C 367.941 271.79 373.423 269.506 378.865 266.727
C 380.65 265.815 382.96 263.312 385.024 263.864
C 387.083 264.597 389.463 265.25 391.361 266.336
C 391.969 267.535 391.77 269.436 391.851 270.759
C 392.026 273.584 392.292 276.382 392.383 279.219
C 392.603 286.122 392.788 293.009 392.637 299.926
C 392.551 303.83 392.061 307.794 392.226 311.693
C 377.86 312.127 363.381 311.595 349.003 311.606
C 343.29 311.61 337.487 311.352 331.791 311.818
C 331.543 311.024 332.589 309.793 333.024 309.136
C 334.039 307.604 335.285 307.487 336.781 306.673
C 337.829 306.104 338.603 305.146 339.322 304.22
C 343.345 299.034 345.908 293.034 348.207 286.945
C 349.275 284.117 350.635 281.235 351.394 278.315
C 350.346 278.533 349.787 279.518 349.013 280.18
C 347.514 281.462 346.052 282.821 344.636 284.195
C 339.45 289.224 334.039 294.671 331.379 301.542
C 330.764 303.132 331.641 304.785 331.207 306.387
C 330.673 308.365 327.885 309.58 327.778 311.581
C 327.393 310.985 327.363 310.199 327.006 309.553
C 323.981 304.082 320.114 298.13 315.658 293.726
C 313.319 291.414 310.4 289.098 306.982 288.88
C 304.104 288.697 301.66 290.935 299.597 292.697
C 293.708 297.727 289.697 304.357 285.957 311.018
C 284.782 310.033 282.695 308.085 282.29 306.565
C 281.861 304.951 282.81 303.363 282.145 301.716
C 280.784 298.341 277.966 295.737 276.486 292.471 Z"
opacity="1" fill="rgb(0,1,1)" fill-rule="evenodd" />
<path d="
M 280.857 321.734
C 281.106 321.441 280.953 321.576 281.333 321.351
C 282.827 321.549 283.087 323.146 283.551 324.389
C 284.766 327.649 285.585 331.14 286.265 334.548
C 288.212 344.302 288.438 354.032 286.453 363.82
C 285.806 367.009 285.044 370.167 283.97 373.242
C 283.32 375.101 281.854 377.613 282.197 379.586
C 281.973 379.213 281.824 378.89 281.517 378.576
C 275.936 364.71 275.101 349.395 277.678 334.818
C 278.187 331.939 278.968 329.142 279.667 326.308
C 280.042 324.786 280.119 323.132 280.857 321.734 Z"
opacity="1" fill="rgb(3,1,1)" fill-rule="evenodd" />
<path d="
M 341.327 229.494
C 337.805 246.716 321.339 259.387 303.573 255.732
C 296.418 254.26 291.568 250.307 286.12 245.815
C 285.7 244.98 284.765 244.348 284.183 243.612
C 282.963 242.068 281.736 240.301 280.951 238.49
C 276.753 228.811 276.746 217.899 281.94 208.531
C 289.157 195.515 304.687 190.132 318.654 194.004
C 322.662 195.115 327.98 197.617 330.503 201.075
C 329.789 202.992 326.444 205.077 324.866 206.328
C 323.126 205.843 321.603 204.209 320.005 203.371
C 316.162 201.356 311.787 200.478 307.464 200.879
C 302.546 201.335 297.961 203.409 294.186 206.562
C 291.123 209.12 288.952 212.493 287.53 216.199
C 286.282 219.449 285.889 222.982 286.151 226.445
C 286.405 229.792 287.332 232.872 288.983 235.801
C 291.673 240.571 295.598 244.534 300.724 246.639
C 316.671 253.19 335.05 240.067 333.303 222.912
C 335.261 219.989 338.388 217.444 340.67 214.721
C 341.338 215.262 341.255 217.407 341.327 218.196
C 341.669 221.935 342.097 225.786 341.327 229.494 Z"
opacity="1" fill="rgb(18,13,84)" fill-rule="evenodd" />
<path d="
M 285.957 311.018
C 289.697 304.357 293.708 297.727 299.597 292.697
C 301.66 290.935 304.104 288.697 306.982 288.88
C 310.4 289.098 313.319 291.414 315.658 293.726
C 320.114 298.13 323.981 304.082 327.006 309.553
C 327.363 310.199 327.393 310.985 327.778 311.581
C 328.509 313.22 329.519 314.709 330.23 316.367
C 331.011 318.189 331.494 320.079 332.517 321.792
C 331.147 321.963 330.73 323.922 330.328 325.138
C 329.261 328.367 328.287 331.527 327.55 334.85
C 325.276 345.11 325.434 355.434 327.691 365.69
C 328.63 369.954 329.858 374.637 331.988 378.468
C 331.124 380.644 330.498 382.825 329.291 384.856
C 328.482 386.218 326.99 387.827 326.892 389.449
C 324.879 391.971 323.483 394.992 321.771 397.727
C 319.661 401.098 316.973 404.394 314.063 407.101
C 311.532 409.454 307.895 411.748 304.27 410.078
C 302.284 409.163 300.477 407.32 298.931 405.817
C 295.52 402.5 292.677 398.884 290.098 394.889
C 288.99 393.172 287.951 390.268 286.477 388.954
C 285.581 385.678 283.065 383.014 282.197 379.586
C 281.854 377.613 283.32 375.101 283.97 373.242
C 285.044 370.167 285.806 367.009 286.453 363.82
C 288.438 354.032 288.212 344.302 286.265 334.548
C 285.585 331.14 284.766 327.649 283.551 324.389
C 283.087 323.146 282.827 321.549 281.333 321.351
C 282.082 320.021 282.429 318.411 283.063 317.01
C 283.956 315.041 285.377 313.098 285.957 311.018 Z
M 299.957 309.609
C 299.07 317.144 299.879 325.571 302.166 332.805
C 302.751 334.652 303.469 338.814 305.152 339.971
C 305.475 337.222 305.293 334.295 305.361 331.514
C 305.546 324.013 305.558 316.521 305.574 309.016
C 305.581 305.139 305.671 301.259 305.577 297.384
C 305.534 295.613 305.676 293.456 305.216 291.751
C 303.684 292.83 303.252 294.924 302.668 296.617
C 301.191 300.896 300.841 305.23 299.957 309.609 Z
M 300.01 382.624
C 299.636 391.309 301.398 400.984 305.109 408.861
C 305.475 409.204 305.779 409.476 306.296 409.318
C 305.531 403.775 305.895 398.084 305.877 392.504
C 305.843 381.733 305.972 370.896 305.755 360.151
C 303.899 361.774 303.097 364.521 302.43 366.832
C 301.525 369.966 300.731 373.233 300.385 376.482
C 300.17 378.5 300.392 380.636 300.01 382.624 Z
M 301.868 347.553
C 301.576 348.975 301.51 350.46 301.705 351.901
C 301.856 353.015 302.251 354.105 302.85 355.058
C 304.877 358.282 308.488 358.306 310.558 355.164
C 313.068 351.353 312.12 343.07 306.506 342.628
C 303.941 343.313 302.762 345.221 301.868 347.553 Z
M 308.025 303.618
C 307.534 311.702 308.129 319.902 308.25 327.995
C 308.306 331.728 307.482 336.614 308.597 340.195
C 310.668 337.148 311.579 333.214 312.312 329.65
C 314.157 320.682 313.88 311.504 312.282 302.515
C 311.83 299.968 311.025 297.527 310.373 295.032
C 310.017 293.667 309.571 291.532 308.592 290.479
C 307.919 290.47 308.358 292.843 308.34 293.479
C 308.245 296.773 308.515 300.366 308.025 303.618 Z
M 308.446 359.774
C 308.008 371.238 308.18 382.842 308.329 394.335
C 308.375 397.9 308.486 401.451 308.655 405.012
C 308.72 406.392 308.415 407.962 308.878 409.269
C 310.19 409.481 310.036 407.712 310.393 406.663
C 311.362 403.811 312.215 400.854 312.721 397.881
C 314.391 388.058 314.392 377.971 311.808 368.294
C 311.243 366.178 310.605 364.113 309.935 362.032
C 309.649 361.142 309.347 360.086 308.446 359.774 Z"
opacity="1" fill="rgb(175,15,23)" fill-rule="evenodd" />
<path d="
M 284.54 473.109
C 284.523 472.856 284.505 472.602 284.488 472.349
C 286.245 471.7 288.16 471.986 290.011 472.018
C 292.533 472.062 295.064 471.95 297.584 471.897
C 297.834 473.521 297.548 475.344 297.546 476.993
C 297.54 480.66 297.553 484.327 297.553 487.994
C 297.553 499.162 297.582 510.33 297.593 521.498
C 297.596 524.999 297.614 528.5 297.615 532.001
C 297.616 533.598 297.3 535.67 297.657 537.204
C 294.683 536.589 291.024 537.081 287.99 537.14
C 287.075 537.158 285.255 537.529 284.492 537.06
C 284.059 515.749 284.996 494.418 284.54 473.109 Z"
opacity="1" fill="rgb(21,19,94)" fill-rule="evenodd" />
<path d="
M 293.825 219.004
C 294.775 217.112 296.582 215.085 298.95 215.929
C 300.151 216.358 301.136 217.472 302.054 218.309
C 304.011 220.094 305.959 221.884 307.865 223.725
C 308.712 224.542 309.715 225.864 310.853 226.264
C 314.893 223.089 318.477 219.025 322.374 215.629
C 333.804 205.672 345.142 195.447 357.525 186.694
C 357.084 188.426 355.27 189.763 354.1 191.054
C 351.864 193.521 349.698 196.224 347.694 198.885
C 340.027 209.067 331.522 218.509 323.112 228.057
C 320.782 230.703 318.413 233.32 316.018 235.908
C 314.893 237.123 313.669 238.82 312.071 239.41
C 310.122 239.599 308.219 236.554 307.032 235.285
C 303.599 231.616 300.117 227.994 296.641 224.364
C 295.235 222.895 293.133 221.246 293.825 219.004 Z"
opacity="1" fill="rgb(16,11,86)" fill-rule="evenodd" />
<path d="
M 306.417 536.035
C 311.599 524.387 316.44 512.571 321.473 500.855
C 325.673 491.077 330.242 481.441 334.253 471.59
C 338.353 471.64 342.553 472.073 346.646 471.689
C 352.728 485.83 359.917 499.686 365.353 514.093
C 367.147 518.846 369.425 523.454 371.432 528.122
C 372.676 531.014 373.698 534.429 375.49 537.012
C 374.87 537.361 372.566 536.863 371.786 536.86
C 369.356 536.852 366.932 536.816 364.501 536.869
C 363.454 536.892 362.082 537.244 361.083 536.975
C 360.255 534.056 358.775 531.227 357.616 528.423
C 356.98 526.885 356.525 525.165 355.645 523.754
C 345.491 524.15 335.106 522.898 324.988 523.86
C 323.033 528.159 321.123 532.671 319.62 537.145
C 318.567 537.572 316.664 537.136 315.507 537.108
C 312.338 537.032 309.167 537.192 306.001 537.145
C 306.342 536.311 306.212 536.684 306.417 536.035 Z
M 330.402 511.046
C 330.126 511.717 330.256 511.365 330.02 512.104
C 336.7 511.972 343.896 512.592 350.509 511.769
C 350.55 510.35 348.859 508.008 348.333 506.628
C 346.572 502.006 344.82 497.329 342.807 492.81
C 342.152 491.341 341.714 488.397 340.422 487.467
C 339.111 491.377 337.165 495.267 335.451 499.032
C 333.665 502.957 332.375 507.223 330.402 511.046 Z"
opacity="1" fill="rgb(21,17,92)" fill-rule="evenodd" />
<path d="
M 332.517 321.792
C 333.112 321.885 332.786 321.866 333.496 321.814
C 332.947 322.853 333.29 323.969 333.578 325.069
C 334.153 327.26 334.84 329.422 335.381 331.622
C 337.071 338.49 337.383 345.749 337.26 352.79
C 337.147 359.217 335.555 365.542 334.059 371.756
C 333.713 373.197 331.828 377.038 332.986 378.302
C 332.295 378.355 332.627 378.297 331.988 378.468
C 329.858 374.637 328.63 369.954 327.691 365.69
C 325.434 355.434 325.276 345.11 327.55 334.85
C 328.287 331.527 329.261 328.367 330.328 325.138
C 330.73 323.922 331.147 321.963 332.517 321.792 Z"
opacity="1" fill="rgb(2,1,1)" fill-rule="evenodd" />
<path d="
M 333.496 321.814
C 346.315 321.46 359.183 321.74 372.01 321.747
C 376.51 321.749 381.01 321.743 385.51 321.775
C 387.415 321.788 389.635 321.45 391.495 321.847
C 389.809 334.336 387.881 346.923 383.657 358.855
C 381.298 365.518 378.005 371.7 375.221 378.17
C 374.097 378.445 372.665 378.223 371.501 378.223
C 368.834 378.225 366.167 378.222 363.5 378.222
C 356.667 378.224 349.833 378.222 343 378.254
C 339.7 378.269 336.267 377.986 332.986 378.302
C 331.828 377.038 333.713 373.197 334.059 371.756
C 335.555 365.542 337.147 359.217 337.26 352.79
C 337.383 345.749 337.071 338.49 335.381 331.622
C 334.84 329.422 334.153 327.26 333.578 325.069
C 333.29 323.969 332.947 322.853 333.496 321.814 Z"
opacity="1" fill="rgb(175,15,24)" fill-rule="evenodd" />
<path d="
M 334.916 87.053
C 336.584 87.474 338.672 90.567 339.958 91.809
C 344.287 95.986 348.532 100.255 352.742 104.553
C 354.07 105.908 355.352 107.328 356.777 108.584
C 357.101 108.87 357.955 109.38 358.051 109.819
C 350.421 109.114 342.585 110.598 334.964 109.962
C 334.678 102.35 334.875 94.668 334.916 87.053 Z"
opacity="1" fill="rgb(215,160,47)" fill-rule="evenodd" />
<path d="
M 402.321 471.931
C 410.321 471.963 418.33 471.968 426.332 471.944
C 432.271 471.926 438.511 471.667 443.969 474.393
C 454.87 479.84 455.691 496.637 445.243 503.032
C 445.336 503.521 446.308 503.683 446.766 503.924
C 448.193 504.675 449.582 505.477 450.804 506.541
C 453.485 508.873 455.081 512.553 455.589 516.019
C 457.018 525.776 450.958 533.535 441.75 536.065
C 437.2 537.315 432.55 537.108 427.886 537.082
C 419.444 537.035 410.806 536.337 402.385 536.971
C 401.649 535.864 402.17 533.332 402.176 532.004
C 402.196 528.003 402.225 524.003 402.228 520.002
C 402.236 509.336 402.252 498.669 402.265 488.003
C 402.271 482.737 401.738 477.159 402.321 471.931 Z
M 415.105 484.166
C 415.367 488.969 415.222 493.925 415.145 498.739
C 419.751 498.402 424.466 498.771 429.092 498.621
C 431.624 498.539 434.47 498.45 436.684 497.072
C 441.333 494.181 440.36 486.911 435.592 484.728
C 432.788 483.444 428.928 483.861 425.935 484.003
C 422.322 484.174 418.714 483.868 415.105 484.166 Z
M 415.132 509.69
C 415.255 514.896 415.082 520.132 415.103 525.344
C 416.387 526.017 419.499 525.426 421.005 525.435
C 424.671 525.456 428.348 525.566 432.013 525.482
C 434.425 525.428 436.838 525.379 439.022 524.233
C 443.051 522.116 444.426 516.044 441.206 512.555
C 438.832 509.983 435.517 509.763 432.247 509.665
C 426.545 509.495 420.833 509.589 415.132 509.69 Z"
opacity="1" fill="rgb(217,163,46)" fill-rule="evenodd" />
<path d="
M 461.466 501.095
C 461.997 496.384 463.586 491.757 465.888 487.626
C 468.016 483.805 470.753 480.512 474.168 477.759
C 488.882 465.897 511.216 469.791 522.451 484.361
C 527.435 490.825 529.428 499.906 528.542 507.937
C 527.402 518.266 521.57 528.081 512.67 533.547
C 498.758 542.091 478.573 539.374 468.436 526.174
C 465.973 522.966 463.903 519.34 462.721 515.457
C 461.309 510.816 460.922 505.914 461.466 501.095 Z
M 474.915 501.088
C 472.694 515.398 485.15 529.36 499.9 525.652
C 502.108 525.097 504.294 524.116 506.176 522.837
C 508.593 521.196 510.402 519.031 511.955 516.586
C 513.61 513.98 514.628 510.993 515.064 507.945
C 516.852 495.463 507.708 482.962 494.653 483.114
C 492.801 483.135 490.899 483.246 489.136 483.849
C 487.218 484.505 485.327 485.284 483.678 486.485
C 481.413 488.135 479.551 490.206 478.037 492.558
C 476.387 495.122 475.381 498.086 474.915 501.088 Z"
opacity="1" fill="rgb(218,165,49)" fill-rule="evenodd" />
<path d="
M 531.316 471.949
C 548.735 472.633 566.291 471.046 583.695 471.856
C 584.012 472.876 583.721 474.42 583.701 475.493
C 583.649 478.385 583.402 481.493 583.763 484.363
C 579.52 484.173 575.245 484.303 570.999 484.342
C 568.9 484.361 566.314 483.988 564.339 484.749
C 564.201 495.995 564.339 507.251 564.329 518.498
C 564.324 524.458 563.603 530.987 564.387 536.884
C 563.223 537.224 561.719 536.923 560.5 536.901
C 557.507 536.849 554.406 536.694 551.423 536.934
C 550.691 536.374 551.132 534.385 551.146 533.497
C 551.196 530.335 551.154 527.169 551.161 524.006
C 551.181 514.857 551.121 505.708 551.112 496.559
C 551.11 493.806 551.097 491.052 551.111 488.299
C 551.116 487.11 551.408 485.522 551.059 484.384
C 544.608 484.024 537.942 484.102 531.483 484.332
C 530.961 483.877 531.345 481.804 531.341 481.053
C 531.323 478.087 530.989 474.887 531.316 471.949 Z"
opacity="1" fill="rgb(217,163,46)" fill-rule="evenodd" />

</svg>